<?xml version="1.0" encoding="UTF-8"?>
<!DOCTYPE svg PUBLIC "-//W3C//DTD SVG 1.1//EN" "http://www.w3.org/Graphics/SVG/1.1/DTD/svg11.dtd">
<!-- Creator: CorelDRAW X7 -->
<svg xmlns="http://www.w3.org/2000/svg" xml:space="preserve" width="47.2555mm" height="12.4274mm" version="1.1" style="shape-rendering:geometricPrecision; text-rendering:geometricPrecision; image-rendering:optimizeQuality; fill-rule:evenodd; clip-rule:evenodd"
viewBox="0 0 1519 399"
 xmlns:xlink="http://www.w3.org/1999/xlink">
 <defs>
  <style type="text/css">
   <![CDATA[
    .fil0 {fill:#FEFEFE;fill-rule:nonzero}
   ]]>
  </style>
 </defs>
 <g id="Camada_x0020_1">
  <metadata id="CorelCorpID_0Corel-Layer"/>
  <path class="fil0" d="M0 242l0 -9 30 0 0 -220 -29 0 0 -9 98 0 0 9 -33 0 0 220 49 0c18,0 32,-4 41,-12 8,-8 15,-23 21,-46l7 0 -5 67 -179 0zm199 -69c0,-20 7,-37 20,-51 13,-14 30,-21 49,-21 20,0 37,7 50,20 13,14 20,31 20,52 0,20 -7,38 -21,52 -13,14 -30,21 -49,21 -20,0 -36,-7 -49,-21 -14,-13 -20,-31 -20,-52zm33 0c0,27 3,44 8,53 6,9 15,13 28,13 13,0 22,-4 28,-14 5,-9 8,-26 8,-51 0,-27 -3,-44 -8,-53 -5,-8 -14,-13 -28,-13 -13,0 -22,5 -28,14 -5,9 -8,26 -8,51zm188 74l-48 -135 -17 0 0 -8 65 0 0 8 -19 0 35 97 37 -97 -23 0 0 -8 50 0 0 8 -17 0 -51 135 -12 0zm133 -85l0 11c0,24 3,40 9,50 6,9 17,14 32,14 13,0 24,-3 33,-10 10,-7 16,-17 19,-29l8 0c-4,16 -11,28 -21,36 -11,8 -25,12 -43,12 -20,0 -37,-6 -51,-20 -13,-13 -20,-30 -20,-49 0,-21 7,-39 21,-54 14,-15 31,-22 51,-22 19,0 34,5 45,15 11,11 17,26 19,46l-102 0zm1 -10l68 0 0 -3c0,-15 -2,-26 -7,-32 -5,-7 -13,-10 -24,-10 -12,0 -20,4 -27,11 -6,8 -9,19 -10,34zm301 26l7 0 0 64 -8 0 -11 -11c-8,6 -16,10 -26,13 -9,3 -20,4 -32,4 -30,0 -54,-11 -73,-34 -19,-22 -29,-51 -29,-87 0,-17 3,-33 7,-48 5,-15 12,-28 22,-40 9,-12 21,-22 35,-29 14,-7 28,-10 42,-10 10,0 19,2 28,5 8,3 17,8 25,14l12 -12 5 0 0 60 -7 0c-5,-19 -13,-33 -24,-43 -11,-10 -24,-15 -40,-15 -23,0 -39,10 -49,30 -10,19 -15,51 -15,96 0,21 1,37 3,49 2,12 5,21 10,29 5,8 11,14 20,19 8,5 17,7 27,7 17,0 32,-5 44,-15 12,-11 21,-26 27,-46zm38 64l0 -8 27 0 0 -222 -27 0 0 -8c9,0 19,0 28,-1 9,0 19,-1 28,-2l0 233 27 0 0 8 -83 0zm125 -212c0,-5 2,-9 5,-13 4,-3 8,-5 13,-5 5,0 9,2 13,6 3,3 5,7 5,12 0,5 -2,9 -5,13 -4,3 -8,5 -13,5 -5,0 -9,-2 -13,-5 -3,-4 -5,-8 -5,-13zm-22 212l0 -8 25 0 0 -122 -23 0 0 -8 7 0c7,0 15,0 23,-1 7,-1 14,-1 21,-2l0 133 21 0 0 8 -74 0zm135 -80l0 11c0,24 3,40 9,50 7,9 17,14 33,14 13,0 24,-3 33,-10 9,-7 15,-17 18,-29l8 0c-3,16 -10,28 -21,36 -11,8 -25,12 -43,12 -20,0 -37,-6 -50,-20 -14,-13 -21,-30 -21,-49 0,-21 7,-39 21,-54 14,-15 31,-22 51,-22 19,0 34,5 45,15 11,11 17,26 19,46l-102 0zm1 -10l68 0 0 -3c0,-15 -2,-26 -7,-32 -5,-7 -13,-10 -24,-10 -11,0 -20,4 -26,11 -6,8 -10,19 -11,34zm123 90l0 -8 20 0 0 -122 -20 0 0 -8 6 0c8,0 15,0 22,-1 7,-1 13,-1 19,-2l0 40c5,-13 13,-23 22,-30 9,-7 20,-10 32,-10 13,0 23,3 30,10 7,6 11,16 11,28l0 95 19 0 0 8 -68 0 0 -8 21 0 0 -96c0,-9 -2,-16 -6,-20 -3,-5 -9,-7 -17,-7 -11,0 -22,6 -30,18 -9,11 -13,26 -13,42l0 63 19 0 0 8 -67 0zm197 -25l0 -105 -20 0 0 -8 20 0 0 -44c1,0 2,0 4,0 1,0 3,0 5,0 4,0 7,0 10,0 3,0 6,-1 8,-1l0 45 33 0 0 8 -33 0 0 102c0,8 1,13 3,16 2,3 6,4 11,4 3,0 7,-1 10,-3 3,-3 7,-6 10,-10l6 4c-6,8 -12,13 -18,17 -5,3 -12,5 -20,5 -10,0 -17,-3 -22,-8 -5,-4 -7,-12 -7,-22z"/>
  <g id="_2142589274208">
   <path class="fil0" d="M7 357c0,3 1,6 3,7 1,2 3,4 5,5 2,1 4,1 7,1 5,0 8,-1 11,-3 2,-3 3,-6 3,-10 0,-3 0,-6 -1,-8 -1,-1 -3,-3 -5,-5 -2,-2 -6,-4 -10,-6 -5,-2 -8,-4 -11,-6 -2,-2 -4,-5 -6,-7 -1,-3 -1,-5 -1,-8 0,-4 1,-8 3,-11 2,-3 4,-6 8,-7 4,-2 8,-3 13,-3 3,0 6,0 9,1 2,0 6,1 10,2l0 15 -6 0c0,-3 -2,-6 -3,-8 -1,-2 -3,-3 -4,-4 -2,0 -5,-1 -7,-1 -3,0 -5,1 -7,2 -2,0 -3,2 -5,4 -1,1 -1,4 -1,6 0,3 0,5 1,7 1,2 3,4 5,5 2,2 5,3 9,5 5,3 8,5 11,7 3,2 5,5 6,7 2,3 2,6 2,9 0,4 0,8 -2,11 -1,2 -2,4 -5,6 -2,2 -5,3 -8,4 -3,1 -6,1 -10,1 -6,0 -12,-1 -20,-3l0 -15 6 0zm102 8c-3,2 -5,4 -7,5 -2,2 -4,3 -6,4 -3,1 -6,1 -8,1 -8,0 -14,-2 -18,-7 -4,-5 -6,-11 -6,-21 0,-5 1,-10 3,-14 2,-5 5,-8 9,-10 3,-3 8,-4 13,-4 3,0 7,1 9,2 3,1 5,3 7,5 1,2 3,5 3,8 1,3 2,7 2,12l-36 0 0 1c0,5 1,9 2,12 1,3 2,5 5,7 2,1 5,2 9,2 3,0 6,0 8,-2 2,-1 5,-3 7,-5l4 4zm-10 -23c0,-4 0,-8 -1,-10 -1,-3 -2,-5 -4,-6 -1,-2 -3,-2 -6,-2 -4,0 -7,1 -9,4 -3,3 -4,8 -4,14l24 0zm26 -22l16 0 0 29c0,4 0,8 1,10 0,2 0,4 1,5 1,1 2,2 3,3 1,1 3,1 5,1 2,0 3,0 4,-1 2,0 3,-1 5,-3 1,-1 2,-2 3,-4 1,-1 1,-3 1,-5l0 -21c0,-2 0,-4 0,-5 0,-1 0,-2 -1,-2 0,-1 0,-1 0,-2 -1,0 -1,-1 -2,-1 -1,0 -2,-1 -3,-1l0 -3 16 0 0 39c0,3 0,5 0,6 0,1 0,2 1,3 0,1 1,1 2,2 0,0 2,1 4,1l0 3 -13 1 -4 0 1 -10 -1 0c-3,4 -6,6 -9,8 -3,1 -6,2 -9,2 -3,0 -6,-1 -8,-2 -2,-1 -4,-3 -5,-6 -1,-3 -2,-7 -2,-11l0 -22c0,-3 0,-5 0,-6 0,-1 -1,-2 -1,-3 -1,-1 -3,-1 -5,-2l0 -3zm139 1l0 12 -7 0c-1,-2 -2,-4 -3,-6 0,-1 -2,-2 -3,-2 -1,-1 -3,-1 -4,-1 -3,0 -5,1 -7,2 -2,2 -4,4 -5,8 -1,3 -2,8 -2,13 0,3 0,6 1,8 0,3 1,5 2,7 1,2 2,4 4,5 2,1 4,1 7,1 3,0 5,0 7,-1 2,-1 5,-3 7,-6l3 4c-1,2 -3,4 -5,5 -1,1 -3,2 -4,3 -2,1 -4,1 -5,2 -2,0 -4,0 -6,0 -7,0 -12,-2 -16,-7 -4,-5 -6,-12 -6,-21 0,-5 1,-10 4,-14 2,-5 5,-8 8,-10 4,-3 9,-4 14,-4 3,0 5,0 8,1 3,0 5,1 8,1zm48 45l-1 0c-3,3 -6,6 -9,7 -3,1 -6,2 -9,2 -3,0 -6,-1 -8,-2 -2,-1 -4,-2 -5,-4 -1,-2 -2,-5 -2,-7 0,-6 3,-10 8,-13 6,-3 14,-5 25,-5l0 -4c0,-4 -1,-7 -1,-9 -1,-2 -2,-4 -4,-5 -1,-1 -4,-2 -6,-2 -3,0 -6,1 -7,3 -2,1 -4,3 -4,7l-8 0 0 -8c4,-2 7,-3 9,-4 3,-1 5,-2 7,-2 3,-1 5,-1 8,-1 3,0 6,1 9,2 2,1 4,3 5,5 1,3 2,7 2,12l0 19c0,3 0,5 0,6 0,1 0,2 0,3 0,1 0,2 1,3 0,0 1,1 1,1 1,1 2,1 4,1l0 3 -15 0 0 -8zm-1 -18c-8,0 -14,1 -17,3 -4,2 -6,5 -6,9 0,2 0,4 1,5 1,2 2,2 4,3 1,0 2,1 4,1 3,0 5,-1 7,-2 2,-1 4,-3 5,-5 1,-2 2,-4 2,-6l0 -8zm46 -18l1 0c2,-3 4,-5 6,-6 1,-2 3,-3 5,-4 2,0 5,-1 7,-1 3,0 5,0 6,1l0 13 -6 0c-1,-3 -2,-4 -3,-5 -1,-1 -2,-1 -4,-1 -1,0 -3,0 -4,1 -1,1 -3,2 -4,3 -1,2 -2,3 -3,5 0,1 0,2 0,4l0 20c0,3 0,6 0,7 1,1 1,2 2,3 1,1 3,1 5,1l0 3 -23 0 0 -3c1,0 2,0 3,-1 1,0 1,-1 2,-1 0,-1 0,-2 1,-3 0,-1 0,-3 0,-6l0 -24c0,-3 0,-5 0,-6 0,-2 0,-3 -1,-4 0,-1 -1,-1 -2,-2 -1,0 -2,-1 -4,-1l0 -3 13 0 4 0 -1 10zm36 -7c1,0 3,-1 4,-2 1,0 2,-1 3,-2 1,-2 1,-3 1,-5 1,-2 1,-4 2,-8l8 0 0 14 18 0 0 6 -18 0 0 25c0,4 0,7 0,9 0,2 1,4 2,5 1,1 2,2 3,2 1,1 2,1 4,1 1,0 3,0 4,-1 1,0 3,-1 4,-2l2 3c-2,2 -5,4 -7,5 -3,1 -5,2 -8,2 -4,0 -8,-1 -10,-4 -3,-3 -4,-8 -4,-14l0 -31 -8 0 0 -3zm81 43l-1 0c-3,3 -6,6 -9,7 -3,1 -6,2 -9,2 -3,0 -6,-1 -8,-2 -2,-1 -4,-2 -5,-4 -1,-2 -2,-5 -2,-7 0,-6 3,-10 9,-13 5,-3 13,-5 24,-5l0 -4c0,-4 0,-7 -1,-9 -1,-2 -2,-4 -4,-5 -1,-1 -3,-2 -6,-2 -3,0 -5,1 -7,3 -2,1 -3,3 -4,7l-8 0 0 -8c4,-2 7,-3 9,-4 3,-1 5,-2 8,-2 2,-1 4,-1 7,-1 4,0 7,1 9,2 2,1 4,3 5,5 1,3 2,7 2,12l0 19c0,3 0,5 0,6 0,1 0,2 0,3 0,1 1,2 1,3 0,0 1,1 2,1 0,1 2,1 3,1l0 3 -15 0 0 -8zm-1 -18c-8,0 -13,1 -17,3 -4,2 -6,5 -6,9 0,2 1,4 1,5 1,2 2,2 4,3 1,0 3,1 4,1 3,0 5,-1 7,-2 3,-1 4,-3 5,-5 1,-2 2,-4 2,-6l0 -8zm5 -51l4 2c-1,3 -3,5 -4,7 -1,2 -2,3 -4,4 -1,0 -2,0 -4,0 -1,0 -2,0 -2,0 -1,0 -2,0 -3,-1 0,0 -1,-1 -3,-2 -1,-1 -2,-1 -2,-2 -1,0 -2,0 -2,0 -1,-1 -1,-1 -2,-1 -1,0 -2,0 -3,1 0,0 -1,1 -2,2 0,1 -1,2 -2,3l-4 -1c2,-4 3,-7 4,-8 1,-1 3,-2 4,-3 1,-1 2,-1 4,-1 1,0 2,0 2,0 1,1 2,1 2,1 1,0 2,1 4,2 1,1 2,2 2,2 1,0 2,1 2,1 1,0 2,0 3,0 1,0 2,0 3,-1 1,-1 2,-3 3,-5zm51 78c-8,0 -14,-2 -18,-7 -4,-4 -6,-11 -6,-20 0,-7 1,-12 3,-16 2,-4 5,-8 9,-10 3,-2 8,-3 13,-3 8,0 14,3 18,7 4,5 6,12 6,20 0,7 -1,12 -3,16 -2,5 -5,8 -9,10 -4,2 -8,3 -13,3zm-14 -29c0,8 1,14 4,18 2,4 6,7 11,7 2,0 4,-1 6,-2 2,-1 3,-3 4,-5 1,-2 2,-5 3,-7 0,-3 0,-6 0,-9 0,-5 0,-10 -1,-14 -2,-3 -3,-6 -5,-8 -3,-1 -5,-2 -8,-2 -4,0 -8,2 -10,6 -3,4 -4,9 -4,16zm111 -20l-13 0 0 34c0,3 0,4 0,6 0,1 1,2 1,3 1,0 1,1 2,1 1,1 2,1 4,1l0 3 -23 0 0 -3c1,0 2,0 3,-1 1,0 1,-1 2,-2 0,0 1,-1 1,-2 0,-1 0,-3 0,-6l0 -34 -7 0 0 -3c2,0 4,-1 4,-1 1,-1 2,-2 2,-3 1,-1 1,-2 1,-4 0,-5 1,-9 3,-12 2,-4 5,-6 8,-8 3,-1 6,-2 11,-2 2,0 4,0 6,1l0 10 -5 0c0,-2 -1,-4 -2,-5 -1,0 -2,-1 -3,-1 -2,0 -3,0 -4,1 -1,1 -2,2 -2,3 -1,1 -2,3 -2,5 0,3 0,5 0,8l0 5 13 0 0 6zm29 -28l0 11 -11 0 0 -11 11 0zm-17 73c2,0 3,0 4,-1 0,0 1,-1 1,-1 1,-1 1,-2 1,-3 0,-1 1,-3 1,-6l0 -24c0,-3 0,-5 -1,-6 0,-2 0,-3 0,-4 -1,-1 -1,-1 -2,-2 -1,0 -3,-1 -4,-1l0 -3 13 0 3 0 0 40c0,3 0,6 1,7 0,1 1,2 1,3 1,0 3,1 5,1l0 3 -23 0 0 -3zm77 -58c0,-4 0,-6 0,-8 0,-1 0,-2 -1,-3 0,-1 0,-2 -1,-3 0,0 -1,-1 -1,-1 -1,0 -2,-1 -4,-1l0 -3 13 -1 4 0 0 66c0,3 0,5 0,6 0,1 0,2 1,3 0,1 1,1 1,2 1,0 3,1 5,1l0 3 -14 1 -3 0 1 -10 -1 0c-3,3 -5,5 -6,6 -2,1 -4,2 -6,3 -2,1 -4,1 -6,1 -7,0 -11,-2 -15,-7 -3,-5 -5,-11 -5,-20 0,-6 1,-12 4,-16 2,-4 5,-8 8,-10 4,-2 8,-3 13,-3 2,0 5,0 7,1 2,0 4,1 6,2l0 -9zm0 28c0,-3 0,-6 0,-7 -1,-2 -1,-4 -2,-5 0,-1 -1,-2 -2,-3 -1,-1 -2,-1 -4,-2 -1,0 -3,0 -4,0 -5,0 -9,2 -11,6 -3,3 -4,9 -4,16 0,7 1,13 3,17 2,3 5,5 9,5 2,0 3,0 5,0 1,0 2,-1 3,-2 1,0 2,-1 3,-2 1,-1 2,-2 2,-3 1,-1 1,-2 2,-3 0,-1 0,-3 0,-5l0 -12zm77 24c-2,2 -4,4 -6,5 -2,2 -4,3 -7,4 -2,1 -5,1 -8,1 -8,0 -13,-2 -17,-7 -4,-5 -6,-11 -6,-21 0,-5 1,-10 3,-14 2,-5 5,-8 8,-10 4,-3 8,-4 13,-4 4,0 7,1 10,2 3,1 5,3 6,5 2,2 3,5 4,8 1,3 1,7 2,12l-36 0 0 1c0,5 0,9 1,12 1,3 3,5 5,7 3,1 6,2 9,2 3,0 6,0 9,-2 2,-1 4,-3 7,-5l3 4zm-9 -23c0,-4 -1,-8 -2,-10 0,-3 -2,-5 -3,-6 -2,-2 -4,-2 -6,-2 -4,0 -7,1 -10,4 -2,3 -3,8 -4,14l25 0zm42 18c0,3 0,6 0,7 1,1 1,2 2,3 1,0 2,1 4,1l0 3 -22 0 0 -3c2,0 3,-1 4,-1 1,-1 1,-1 1,-2 1,-1 1,-2 1,-3 0,-1 0,-3 0,-5l0 -47c0,-4 0,-6 0,-8 0,-1 0,-2 0,-3 0,-1 -1,-2 -1,-3 -1,0 -1,-1 -2,-1 -1,0 -2,-1 -4,-1l0 -3 14 -1 3 0 0 67zm39 -62l0 11 -11 0 0 -11 11 0zm-16 73c1,0 2,0 3,-1 0,0 1,-1 1,-1 1,-1 1,-2 1,-3 1,-1 1,-3 1,-6l0 -24c0,-3 0,-5 0,-6 0,-2 -1,-3 -1,-4 -1,-1 -1,-1 -2,-2 -1,0 -3,-1 -4,-1l0 -3 13 0 3 0 0 40c0,3 1,6 1,7 0,1 1,2 2,3 0,0 2,1 4,1l0 3 -22 0 0 -3zm76 -58c0,-4 0,-6 0,-8 0,-1 0,-2 0,-3 -1,-1 -1,-2 -1,-3 -1,0 -1,-1 -2,-1 -1,0 -2,-1 -4,-1l0 -3 13 -1 4 0 0 66c0,3 0,5 0,6 0,1 0,2 1,3 0,1 1,1 1,2 1,0 3,1 5,1l0 3 -14 1 -3 0 1 -10 -1 0c-3,3 -5,5 -6,6 -2,1 -4,2 -6,3 -2,1 -4,1 -6,1 -6,0 -11,-2 -15,-7 -3,-5 -5,-11 -5,-20 0,-6 2,-12 4,-16 2,-4 5,-8 9,-10 3,-2 7,-3 12,-3 3,0 5,0 7,1 2,0 4,1 6,2l0 -9zm0 28c0,-3 0,-6 0,-7 -1,-2 -1,-4 -2,-5 0,-1 -1,-2 -2,-3 -1,-1 -2,-1 -4,-2 -1,0 -2,0 -4,0 -5,0 -9,2 -11,6 -3,3 -4,9 -4,16 0,7 1,13 3,17 2,3 5,5 10,5 1,0 3,0 4,0 1,0 2,-1 3,-2 1,0 2,-1 3,-2 1,-1 2,-2 3,-3 0,-1 0,-2 1,-3 0,-1 0,-3 0,-5l0 -12zm65 25l-1 0c-3,3 -6,6 -9,7 -3,1 -6,2 -9,2 -3,0 -6,-1 -8,-2 -2,-1 -4,-2 -5,-4 -1,-2 -2,-5 -2,-7 0,-6 3,-10 9,-13 5,-3 13,-5 24,-5l0 -4c0,-4 0,-7 -1,-9 -1,-2 -2,-4 -4,-5 -1,-1 -3,-2 -6,-2 -3,0 -5,1 -7,3 -2,1 -3,3 -4,7l-8 0 0 -8c4,-2 7,-3 9,-4 3,-1 5,-2 8,-2 2,-1 4,-1 7,-1 4,0 7,1 9,2 2,1 4,3 5,5 1,3 2,7 2,12l0 19c0,3 0,5 0,6 0,1 0,2 0,3 0,1 1,2 1,3 0,0 1,1 2,1 0,1 2,1 3,1l0 3 -15 0 0 -8zm-1 -18c-8,0 -13,1 -17,3 -4,2 -6,5 -6,9 0,2 1,4 2,5 0,2 1,2 3,3 1,0 3,1 4,1 3,0 5,-1 7,-2 3,-1 4,-3 5,-5 1,-2 2,-4 2,-6l0 -8zm69 -35c0,-4 0,-6 0,-8 0,-1 0,-2 0,-3 -1,-1 -1,-2 -1,-3 -1,0 -1,-1 -2,-1 -1,0 -2,-1 -4,-1l0 -3 14 -1 3 0 0 66c0,3 0,5 0,6 0,1 0,2 1,3 0,1 1,1 2,2 0,0 2,1 4,1l0 3 -13 1 -4 0 1 -10 -1 0c-2,3 -4,5 -6,6 -2,1 -4,2 -6,3 -2,1 -4,1 -6,1 -6,0 -11,-2 -14,-7 -4,-5 -5,-11 -5,-20 0,-6 1,-12 3,-16 2,-4 5,-8 9,-10 3,-2 8,-3 12,-3 3,0 5,0 7,1 2,0 4,1 6,2l0 -9zm0 28c0,-3 0,-6 0,-7 0,-2 -1,-4 -2,-5 0,-1 -1,-2 -2,-3 -1,-1 -2,-1 -3,-2 -2,0 -3,0 -5,0 -5,0 -9,2 -11,6 -3,3 -4,9 -4,16 0,7 1,13 3,17 2,3 5,5 10,5 1,0 3,0 4,0 1,0 2,-1 3,-2 1,0 2,-1 3,-2 1,-1 2,-2 3,-3 0,-1 1,-2 1,-3 0,-1 0,-3 0,-5l0 -12zm78 24c-3,2 -5,4 -7,5 -2,2 -4,3 -7,4 -2,1 -5,1 -8,1 -7,0 -13,-2 -17,-7 -4,-5 -6,-11 -6,-21 0,-5 1,-10 3,-14 2,-5 5,-8 9,-10 3,-3 8,-4 12,-4 4,0 7,1 10,2 3,1 5,3 7,5 1,2 2,5 3,8 1,3 2,7 2,12l-36 0 0 1c0,5 1,9 2,12 1,3 2,5 5,7 2,1 5,2 8,2 4,0 6,0 9,-2 2,-1 5,-3 7,-5l4 4zm-10 -23c0,-4 -1,-8 -1,-10 -1,-3 -2,-5 -4,-6 -2,-2 -4,-2 -6,-2 -4,0 -7,1 -9,4 -3,3 -4,8 -5,14l25 0z"/>
   <path class="fil0" d="M1216 313c0,-4 0,-6 0,-8 0,-1 -1,-2 -1,-3 0,-1 0,-2 -1,-3 0,0 -1,-1 -2,-1 0,0 -2,-1 -4,-1l0 -3 14 -1 3 0 0 66c0,3 1,5 1,6 0,1 0,2 0,3 1,1 1,1 2,2 1,0 2,1 4,1l0 3 -13 1 -3 0 0 -10 0 0c-3,3 -5,5 -7,6 -1,1 -3,2 -5,3 -2,1 -4,1 -7,1 -6,0 -11,-2 -14,-7 -3,-5 -5,-11 -5,-20 0,-6 1,-12 3,-16 3,-4 6,-8 9,-10 4,-2 8,-3 13,-3 2,0 4,0 6,1 3,0 5,1 7,2l0 -9zm0 28c0,-3 0,-6 -1,-7 0,-2 0,-4 -1,-5 -1,-1 -1,-2 -2,-3 -2,-1 -3,-1 -4,-2 -1,0 -3,0 -5,0 -4,0 -8,2 -11,6 -2,3 -3,9 -3,16 0,7 1,13 3,17 2,3 5,5 9,5 2,0 3,0 4,0 1,0 3,-1 4,-2 1,0 2,-1 3,-2 1,-1 2,-2 2,-3 1,-1 1,-2 1,-3 1,-1 1,-3 1,-5l0 -12zm48 -43l0 11 -10 0 0 -11 10 0zm-16 73c2,0 3,0 3,-1 1,0 1,-1 2,-1 0,-1 1,-2 1,-3 0,-1 0,-3 0,-6l0 -24c0,-3 0,-5 0,-6 0,-2 0,-3 -1,-4 0,-1 -1,-1 -2,-2 -1,0 -2,-1 -4,-1l0 -3 13 0 4 0 0 40c0,3 0,6 0,7 1,1 1,2 2,3 1,0 2,1 4,1l0 3 -22 0 0 -3zm89 -45l-10 -1 -1 1c1,1 2,3 3,5 1,2 1,4 1,6 0,7 -2,11 -6,15 -4,3 -9,5 -16,5 -3,0 -6,-1 -8,-2 -3,3 -4,5 -4,7 0,1 0,2 1,3 0,1 1,1 2,2 2,0 3,0 6,0l14 0c4,0 7,1 9,2 3,1 5,3 6,5 1,2 1,4 1,7 0,4 -1,7 -3,10 -2,2 -5,5 -9,6 -3,2 -8,2 -13,2 -4,0 -7,0 -10,0 -4,-1 -6,-2 -8,-3 -3,-1 -4,-2 -6,-4 -1,-2 -1,-4 -1,-6 0,-3 0,-5 2,-7 1,-2 4,-4 7,-5 -2,-1 -4,-2 -5,-3 -1,-2 -1,-3 -1,-5 0,-2 1,-4 2,-6 1,-2 3,-4 6,-6 -3,-2 -5,-4 -6,-7 -2,-2 -2,-5 -2,-9 0,-3 0,-6 1,-8 1,-3 3,-5 5,-6 2,-2 4,-3 7,-4 2,0 5,-1 8,-1 3,0 5,1 8,1l20 0 0 6zm-39 11c0,5 1,9 3,11 2,3 4,4 8,4 2,0 4,0 5,-1 1,-1 2,-2 3,-3 1,-1 2,-3 2,-4 1,-2 1,-4 1,-6 0,-3 -1,-6 -2,-8 -1,-2 -2,-4 -4,-5 -1,-1 -3,-1 -5,-1 -4,0 -6,1 -8,3 -2,2 -3,6 -3,10zm1 38c-2,1 -3,3 -4,5 -1,1 -1,3 -1,5 0,3 1,6 4,8 2,1 6,2 12,2 3,0 6,-1 9,-1 2,-1 4,-3 5,-4 1,-2 2,-4 2,-6 0,-1 0,-2 0,-3 -1,-1 -1,-2 -2,-3 0,-1 -2,-1 -3,-2 -1,0 -3,-1 -5,-1l-9 0c-3,0 -5,0 -8,0zm67 -77l0 11 -10 0 0 -11 10 0zm-16 73c1,0 2,0 3,-1 1,0 1,-1 2,-1 0,-1 0,-2 1,-3 0,-1 0,-3 0,-6l0 -24c0,-3 0,-5 0,-6 0,-2 -1,-3 -1,-4 0,-1 -1,-1 -2,-2 -1,0 -2,-1 -4,-1l0 -3 13 0 4 0 0 40c0,3 0,6 0,7 0,1 1,2 2,3 1,0 2,1 4,1l0 3 -22 0 0 -3zm35 -48c2,0 3,-1 4,-2 2,0 3,-1 3,-2 1,-2 1,-3 2,-5 0,-2 0,-4 1,-8l8 0 0 14 18 0 0 6 -18 0 0 25c0,4 0,7 0,9 1,2 1,4 2,5 1,1 2,2 3,2 1,1 2,1 4,1 1,0 3,0 4,-1 1,0 3,-1 4,-2l3 3c-3,2 -6,4 -8,5 -2,1 -5,2 -7,2 -5,0 -9,-1 -11,-4 -3,-3 -4,-8 -4,-14l0 -31 -8 0 0 -3zm81 43l-1 0c-3,3 -6,6 -9,7 -3,1 -6,2 -9,2 -3,0 -5,-1 -8,-2 -2,-1 -3,-2 -5,-4 -1,-2 -1,-5 -1,-7 0,-6 2,-10 8,-13 5,-3 13,-5 24,-5l0 -4c0,-4 0,-7 -1,-9 -1,-2 -2,-4 -3,-5 -2,-1 -4,-2 -7,-2 -3,0 -5,1 -7,3 -2,1 -3,3 -4,7l-7 0 0 -8c3,-2 6,-3 9,-4 2,-1 4,-2 7,-2 2,-1 5,-1 7,-1 4,0 7,1 9,2 2,1 4,3 5,5 1,3 2,7 2,12l0 19c0,3 0,5 0,6 0,1 0,2 0,3 1,1 1,2 1,3 1,0 1,1 2,1 1,1 2,1 3,1l0 3 -15 0 0 -8zm-1 -18c-7,0 -13,1 -17,3 -4,2 -6,5 -6,9 0,2 1,4 2,5 1,2 2,2 3,3 1,0 3,1 5,1 2,0 5,-1 7,-2 2,-1 3,-3 5,-5 1,-2 1,-4 1,-6l0 -8zm46 12c0,3 1,6 1,7 0,1 1,2 2,3 0,0 2,1 4,1l0 3 -23 0 0 -3c2,0 4,-1 4,-1 1,-1 2,-1 2,-2 0,-1 0,-2 1,-3 0,-1 0,-3 0,-5l0 -47c0,-4 0,-6 0,-8 0,-1 -1,-2 -1,-3 0,-1 0,-2 -1,-3 0,0 -1,-1 -2,-1 0,0 -2,-1 -4,-1l0 -3 14 -1 3 0 0 67z"/>
  </g>
 </g>
</svg>
